<?xml version="1.0" standalone="no"?>
<!DOCTYPE svg PUBLIC "-//W3C//DTD SVG 20010904//EN"
 "http://www.w3.org/TR/2001/REC-SVG-20010904/DTD/svg10.dtd">
<svg version="1.0" xmlns="http://www.w3.org/2000/svg"
 width="300.000000pt" height="360.000000pt" viewBox="0 0 300.000000 360.000000"
 preserveAspectRatio="xMidYMid meet">

<g transform="translate(0.000000,360.000000) scale(0.100000,-0.100000)"
fill="#000000" stroke="none">
<path d="M1535 3531 c-93 -9 -127 -19 -181 -54 -83 -54 -150 -138 -194 -243
-37 -88 -50 -159 -50 -266 0 -61 -3 -79 -16 -86 -15 -8 -15 -11 3 -29 12 -12
27 -52 37 -96 10 -42 28 -97 42 -124 13 -26 24 -52 24 -56 0 -14 62 -100 108
-149 41 -44 44 -50 39 -90 -7 -62 -33 -169 -43 -177 -12 -10 -172 -29 -264
-31 -72 -1 -77 -3 -113 -38 -25 -25 -43 -54 -53 -89 -17 -58 -61 -124 -100
-150 -26 -17 -27 -19 -21 -93 4 -41 18 -111 32 -155 22 -71 25 -97 25 -240 0
-157 -12 -236 -40 -270 -6 -7 -15 -48 -19 -90 -6 -49 -16 -87 -28 -104 -11
-14 -35 -57 -53 -96 -33 -69 -103 -155 -126 -155 -7 0 -24 -14 -37 -30 -14
-17 -35 -30 -45 -30 -39 0 -207 -61 -242 -88 -29 -22 -48 -28 -113 -32 -42 -3
-77 -9 -77 -15 0 -11 122 -19 157 -11 12 4 34 17 50 30 33 28 200 86 248 86
18 0 35 -6 38 -12 3 -10 9 -8 24 4 11 10 27 18 36 18 9 0 17 4 17 9 0 12 -47
23 -63 16 -7 -4 -1 3 13 15 83 72 111 106 163 199 49 87 59 115 67 179 6 42
20 96 32 121 21 42 23 63 26 226 3 157 1 190 -17 260 -13 47 -21 110 -21 157
0 69 3 82 23 101 37 35 64 79 76 123 6 23 21 56 34 75 21 31 28 35 87 41 36 4
110 12 165 19 55 6 172 16 260 20 88 5 196 13 240 19 151 19 225 23 225 11 0
-6 7 -11 15 -11 8 0 15 4 15 9 0 4 69 8 153 7 83 0 206 1 272 4 110 4 124 2
162 -18 23 -12 58 -22 77 -22 52 0 81 -15 104 -53 17 -30 27 -36 71 -42 61 -8
107 -38 133 -85 16 -30 19 -52 16 -156 -2 -99 -6 -126 -20 -141 -10 -11 -21
-35 -24 -54 -4 -19 -18 -47 -31 -62 -12 -16 -26 -41 -29 -55 -4 -15 -13 -34
-20 -42 -7 -9 -23 -38 -35 -65 -12 -27 -35 -63 -50 -79 -19 -21 -29 -42 -29
-63 0 -17 -4 -35 -10 -38 -5 -3 -10 -29 -10 -57 0 -50 -2 -53 -64 -114 -35
-34 -74 -80 -86 -103 -14 -24 -33 -42 -48 -46 -14 -3 -37 -15 -52 -25 -23 -17
-110 -58 -152 -73 -10 -3 -20 -3 -22 2 -3 4 -62 8 -131 9 -108 1 -136 5 -203
27 -98 34 -140 63 -274 188 -60 56 -118 105 -128 109 -35 13 -270 250 -297
300 -14 26 -29 48 -33 48 -13 0 -30 52 -30 94 0 30 -7 52 -22 72 -21 26 -23
38 -22 146 1 65 -2 118 -6 118 -15 0 -33 -111 -28 -178 4 -51 11 -78 27 -97
15 -20 21 -42 21 -76 0 -40 8 -61 42 -116 47 -73 291 -326 327 -338 23 -7 82
-59 168 -147 113 -117 256 -179 421 -185 l102 -4 0 -30 c0 -31 34 -109 54
-121 6 -4 25 -8 43 -8 17 0 33 -4 35 -10 2 -6 83 -12 203 -14 110 -2 216 -8
235 -14 200 -56 240 -63 240 -39 0 7 -44 24 -108 41 -93 25 -132 29 -307 35
-117 4 -212 12 -228 19 -16 7 -44 12 -62 12 -30 0 -37 5 -55 40 -11 21 -20 51
-20 66 0 24 2 26 34 20 20 -4 37 -2 41 4 3 5 13 10 22 10 14 0 37 11 163 77
33 18 63 43 75 62 11 18 50 65 88 104 46 48 67 78 67 95 0 14 5 54 11 90 9 50
19 73 45 102 19 21 34 44 34 51 0 8 11 32 24 54 14 22 34 60 46 85 11 24 27
51 34 60 8 8 17 31 21 50 4 19 16 46 26 60 14 19 18 48 20 130 5 159 -5 201
-51 239 -26 21 -57 34 -103 42 -59 11 -66 15 -81 46 -18 37 -41 49 -118 59
-102 14 -112 23 -146 122 l-30 89 27 29 c14 16 39 55 55 86 28 56 29 61 30
225 2 302 -22 503 -74 610 -26 54 -106 126 -165 148 -28 11 -62 28 -77 39 -25
18 -47 19 -320 22 -161 1 -329 -1 -373 -5z m514 -26 c-9 -8 -269 -11 -281 -3
-7 4 54 8 136 8 82 0 147 -2 145 -5z m-480 -9 c-2 -2 -29 -6 -59 -10 -38 -4
-50 -3 -40 4 13 9 109 15 99 6z m510 -55 c-20 -27 -26 -29 -107 -34 -85 -5
-88 -4 -109 22 l-23 26 88 6 c48 3 106 6 130 7 l43 2 -22 -29z m215 5 c22 -9
37 -18 35 -20 -2 -2 -55 -6 -118 -9 l-114 -7 23 25 c36 38 99 42 174 11z
m-493 2 c27 -23 99 -124 99 -140 0 -12 -34 -16 -217 -21 -339 -11 -453 -9
-453 6 0 6 13 27 28 45 l27 33 252 9 c139 4 257 11 263 15 5 3 10 11 10 17 0
11 -396 5 -457 -8 -38 -7 -43 5 -10 26 40 27 429 42 458 18z m605 -85 c26 -28
54 -84 54 -108 0 -9 -47 -14 -177 -19 -98 -4 -197 -11 -221 -16 -43 -8 -44 -7
-37 19 4 14 16 51 28 81 l22 55 105 6 c211 11 198 12 226 -18z m-376 3 c0 -7
-11 -44 -25 -82 -14 -38 -25 -70 -25 -72 0 -2 -5 0 -11 4 -7 4 -9 21 -6 40 3
19 2 34 -3 34 -13 0 -52 68 -45 80 10 16 115 13 115 -4z m-95 -157 c9 -28 15
-53 12 -55 -3 -3 -76 -6 -163 -8 -88 -1 -236 -8 -330 -16 l-172 -13 -46 39
c-35 30 -45 45 -43 64 l2 25 215 5 c118 3 281 7 362 8 l146 2 17 -51z m546
-26 c6 -16 13 -51 16 -79 l6 -51 -174 -6 c-96 -4 -208 -10 -250 -13 l-77 -6
-4 48 c-6 70 1 94 29 105 30 11 207 26 341 28 l102 1 11 -27z m-1281 -43 c19
-19 19 -20 1 -20 -11 0 -26 -3 -34 -6 -11 -4 -13 1 -10 20 6 31 16 33 43 6z
m756 -47 c-3 -10 -8 -55 -12 -100 l-7 -83 -141 0 c-77 -1 -170 -2 -205 -4 -36
-1 -68 2 -75 8 -6 6 -54 47 -106 91 l-94 80 123 7 c68 4 126 9 129 12 3 3 93
6 199 6 180 0 194 -1 189 -17z m-739 -4 c42 2 48 -1 153 -91 60 -51 109 -96
109 -100 1 -5 -75 -8 -169 -8 l-170 0 0 68 c0 89 10 143 23 135 6 -4 31 -6 54
-4z m1293 -117 l0 -49 -152 -6 c-83 -4 -198 -7 -255 -7 l-103 0 0 45 0 45 63
1 c34 1 89 5 122 9 33 4 120 8 193 9 l132 1 0 -48z m-2 -161 l3 -74 -62 7
c-34 3 -74 6 -88 6 -24 0 -29 6 -44 55 -9 31 -17 60 -17 65 0 14 30 18 120 17
l85 -2 3 -74z m-246 49 c2 -5 1 -32 0 -59 -4 -51 -15 -62 -54 -53 -14 3 -18
14 -18 47 0 24 -3 50 -6 59 -5 13 2 16 34 16 22 0 42 -4 44 -10z m-948 -82 l2
-76 -45 -4 c-93 -6 -98 -1 -117 120 l-7 43 83 -3 82 -3 2 -77z m624 58 c8 -41
-71 -62 -112 -31 -12 9 -41 15 -70 15 -57 0 -122 15 -131 31 -4 6 49 9 152 7
147 -3 158 -4 161 -22z m80 7 c-5 -25 -28 -28 -28 -4 0 12 6 21 16 21 9 0 14
-7 12 -17z m128 -19 c4 -14 3 -37 -1 -52 -4 -15 -10 -70 -12 -124 -5 -102 -9
-112 -63 -135 -49 -20 -71 12 -25 37 27 14 31 25 15 35 -5 3 -10 17 -10 30 0
27 -17 42 -32 27 -7 -7 -6 -17 1 -31 7 -12 8 -21 2 -21 -14 0 -22 30 -30 112
l-7 77 31 3 c18 2 30 9 30 18 0 19 62 60 81 53 8 -3 17 -16 20 -29z m-621 16
c3 -5 -6 -34 -19 -65 -14 -30 -31 -75 -37 -100 -6 -24 -22 -57 -35 -72 -13
-16 -24 -34 -24 -40 0 -7 -6 -13 -14 -13 -26 0 -34 25 -35 108 -1 46 -6 92
-12 103 -10 20 -5 54 13 77 12 15 154 17 163 2z m212 -156 c137 -92 149 -117
91 -188 l-31 -38 -20 38 c-11 22 -28 50 -38 63 -11 13 -19 30 -19 37 0 16 -70
138 -82 142 -4 2 -8 9 -8 15 0 6 -7 20 -17 31 -9 12 1 3 22 -18 21 -22 67 -58
102 -82z m100 75 c8 -7 31 -9 58 -6 53 8 57 -3 14 -34 -22 -15 -27 -25 -20
-32 14 -14 14 -54 1 -62 -5 -3 -10 -1 -10 4 0 12 -36 46 -68 65 -70 42 -92 60
-92 76 0 10 6 20 13 23 14 5 84 -18 104 -34z m-242 -27 c17 -31 32 -59 35 -62
10 -9 60 -90 60 -95 0 -3 11 -23 25 -43 14 -20 25 -41 25 -46 0 -5 -41 -7 -98
-3 -96 6 -100 7 -133 40 l-34 34 28 89 c32 100 49 144 57 144 3 0 19 -26 35
-58z m724 -83 c5 -30 6 -57 3 -60 -4 -4 -22 -10 -40 -14 -26 -5 -33 -4 -30 7
24 89 42 138 50 130 5 -5 13 -33 17 -63z m152 61 l39 0 0 -65 0 -66 -72 3
c-80 3 -76 0 -92 97 l-7 44 47 -7 c26 -3 64 -6 85 -6z m-222 -17 c0 -10 -8
-40 -18 -68 -15 -41 -22 -50 -42 -50 -23 0 -24 4 -27 68 l-3 67 46 0 c36 0 45
-3 44 -17z m-930 -42 c6 -10 13 -37 17 -59 6 -41 6 -41 -31 -48 -26 -4 -41 -2
-50 7 -18 19 -54 106 -47 113 3 3 27 6 53 6 37 0 51 -4 58 -19z m654 -54 c25
-79 23 -95 -10 -89 -43 7 -55 21 -48 56 8 42 26 86 34 86 4 0 15 -24 24 -53z
m376 -78 c17 -50 14 -56 -31 -63 -24 -3 -57 -9 -74 -12 l-32 -6 8 42 c9 50 16
57 55 63 60 8 63 7 74 -24z m141 16 c0 -9 -7 -29 -15 -45 -12 -23 -23 -30 -44
-30 -24 0 -31 6 -40 31 -19 55 -16 59 44 59 43 0 55 -3 55 -15z m-300 -5 c0
-5 -7 -7 -15 -4 -8 4 -15 8 -15 10 0 2 7 4 15 4 8 0 15 -4 15 -10z m-802 -16
l31 -6 -22 -44 c-12 -24 -27 -44 -34 -44 -10 0 -73 71 -73 83 0 13 55 19 98
11z m100 -22 c36 -25 108 -42 181 -42 33 0 62 -4 65 -9 9 -14 -50 -21 -190
-21 l-133 0 22 45 c12 25 24 45 25 45 2 0 16 -8 30 -18z m667 8 c34 -13 23
-30 -20 -30 -39 0 -53 14 -28 29 22 13 17 13 48 1z m-202 -27 c15 -3 27 -9 27
-14 0 -4 10 -9 23 -11 34 -5 26 -23 -11 -26 -27 -3 -40 3 -70 34 -25 25 -31
34 -17 30 11 -4 32 -10 48 -13z m-73 -34 c0 -5 -7 -9 -15 -9 -9 0 -15 9 -15
21 0 18 2 19 15 9 8 -7 15 -16 15 -21z m255 -9 c-3 -5 -11 -10 -16 -10 -6 0
-7 5 -4 10 3 6 11 10 16 10 6 0 7 -4 4 -10z m250 -21 c4 -11 4 -23 1 -26 -10
-11 -100 -23 -120 -17 -12 4 -36 6 -53 6 -34 -1 -43 10 -20 25 13 9 116 29
159 32 19 1 29 -5 33 -20z m-651 -19 c-22 -22 -148 -60 -197 -60 -50 0 -137
32 -137 51 0 5 71 10 158 12 86 1 164 4 172 5 9 1 11 -1 4 -8z m71 -37 c6 -22
4 -23 -51 -23 l-58 0 44 29 c48 30 54 29 65 -6z m279 31 c29 -11 16 -21 -36
-28 -198 -24 -189 -24 -204 -2 -8 11 -14 24 -14 28 0 9 231 11 254 2z m-594
-101 c0 -15 88 -12 94 3 3 8 46 12 130 13 l125 2 21 -40 c11 -22 20 -44 20
-49 0 -4 -58 -14 -128 -20 -71 -7 -144 -17 -163 -22 -18 -6 -80 -10 -136 -10
-119 0 -113 -8 -86 110 l17 75 53 -25 c29 -14 53 -30 53 -37z m940 0 c11 -36
19 -67 18 -68 -12 -8 -338 -30 -338 -22 0 1 11 31 24 67 l24 65 110 5 c61 3
114 8 118 13 16 16 24 5 44 -60z m-315 25 c-3 -13 -16 -44 -27 -70 l-21 -47
-61 5 c-34 3 -66 7 -73 9 -13 4 -53 76 -53 95 0 5 24 11 53 11 28 1 66 5 82 9
17 4 47 8 68 9 35 1 38 -1 32 -21z"/>
<path d="M2065 2710 c-8 -26 20 -61 41 -53 25 9 14 67 -13 71 -15 2 -23 -3
-28 -18z"/>
<path d="M2154 1943 c-3 -10 -10 -28 -16 -39 -6 -12 -7 -30 -4 -41 11 -35 84
-96 148 -122 l63 -27 5 -65 c4 -52 10 -72 33 -98 20 -24 26 -39 21 -55 -9 -30
-10 -30 -43 -16 -32 13 -61 8 -61 -10 0 -5 7 -10 16 -10 9 0 29 -8 46 -17 29
-18 30 -18 54 10 13 15 24 37 24 48 0 10 3 19 8 19 142 10 205 19 219 32 8 9
19 34 23 56 7 38 5 42 -19 51 -14 6 -44 13 -66 17 -22 4 -62 18 -88 31 -61 30
-111 28 -115 -4 -5 -32 -16 -28 -27 9 -9 27 -20 36 -75 58 -36 14 -80 40 -98
56 -30 28 -32 33 -26 76 6 46 -10 78 -22 41z m353 -270 c29 -14 53 -32 53 -39
0 -7 12 -27 27 -45 l27 -32 -58 7 c-68 9 -125 31 -133 51 -8 23 6 85 20 85 6
0 35 -12 64 -27z m-59 -122 c3 -8 -1 -12 -9 -9 -7 2 -15 10 -17 17 -3 8 1 12
9 9 7 -2 15 -10 17 -17z"/>
<path d="M1766 1913 c-14 -14 -4 -39 39 -91 25 -30 45 -61 45 -68 0 -8 7 -14
15 -14 8 0 15 8 15 18 0 20 -45 87 -73 111 -9 7 -17 19 -17 27 0 15 -15 26
-24 17z"/>
<path d="M1412 1868 c-26 -13 -24 -35 4 -29 10 2 69 7 129 10 63 3 110 10 110
16 0 14 -214 17 -243 3z"/>
<path d="M2627 1843 c-14 -14 -5 -23 43 -48 55 -28 70 -31 70 -12 0 6 -22 24
-49 40 -54 30 -55 30 -64 20z"/>
<path d="M2374 1816 c-16 -13 -17 -15 -3 -21 19 -7 69 11 69 25 0 15 -43 12
-66 -4z"/>
<path d="M1500 1602 c-74 -26 -140 -51 -147 -55 -6 -4 -10 -26 -10 -49 l2 -43
50 -7 c28 -4 80 -13 116 -19 59 -10 73 -9 130 9 35 11 75 23 89 26 14 3 34 12
45 20 17 13 18 17 6 25 -8 5 -15 26 -15 47 -1 36 -4 40 -56 66 -30 15 -59 27
-65 27 -5 0 -71 -22 -145 -47z m194 -13 c34 -15 46 -25 42 -36 -3 -8 -6 -23
-6 -33 0 -13 -14 -23 -47 -34 -26 -9 -47 -16 -47 -16 -1 0 -1 23 -1 51 0 36
-5 54 -17 63 -10 7 -15 16 -11 19 11 12 39 7 87 -14z m-264 -79 c0 -25 -4 -30
-25 -30 -20 0 -25 5 -25 24 0 22 10 30 43 35 4 0 7 -12 7 -29z"/>
<path d="M1950 1643 c-47 -6 -60 -19 -60 -60 0 -41 22 -86 52 -107 30 -21 98
-21 98 -1 0 9 -9 15 -22 15 -44 0 -64 12 -82 45 -25 46 -18 68 24 75 40 7 60
17 60 31 0 9 -6 9 -70 2z"/>
<path d="M2114 1509 c-11 -18 9 -27 49 -22 52 7 50 33 -2 33 -22 0 -43 -5 -47
-11z"/>
<path d="M1146 1333 c4 -10 10 -66 12 -126 3 -94 1 -111 -17 -142 -11 -19 -17
-37 -12 -39 4 -3 16 9 26 26 36 61 30 298 -8 298 -5 0 -6 -8 -1 -17z"/>
<path d="M2003 1248 c-20 -20 -31 -21 -119 -19 -54 1 -100 4 -104 6 -3 2 -11
0 -18 -4 -10 -6 -10 -19 -2 -58 10 -43 15 -52 38 -58 15 -3 38 -17 52 -29 48
-44 159 -86 226 -86 99 0 484 96 484 121 0 17 -21 61 -38 80 -23 24 -72 39
-128 39 -22 0 -63 7 -90 15 -31 9 -91 15 -164 15 -105 0 -117 -2 -137 -22z"/>
<path d="M1085 791 c-40 -18 -86 -68 -98 -106 -11 -34 -71 -94 -97 -97 -36 -4
-31 -22 7 -26 37 -4 69 25 115 106 35 61 66 88 119 104 42 12 53 38 17 37 -13
0 -41 -8 -63 -18z"/>
<path d="M1889 682 c18 -61 70 -111 103 -99 8 3 4 8 -12 15 -32 12 -55 39 -67
76 -13 41 -35 48 -24 8z"/>
<path d="M1427 423 c-3 -5 14 -9 36 -9 48 -2 147 -48 147 -69 0 -30 31 -45 91
-45 54 0 60 2 69 25 18 48 46 65 105 65 30 0 55 5 55 10 0 13 -81 13 -114 0
-14 -5 -36 -25 -48 -44 -22 -33 -26 -36 -76 -36 -46 0 -54 3 -61 23 -8 21 -41
56 -41 44 0 -4 -16 5 -36 18 -36 24 -116 35 -127 18z"/>
</g>
</svg>
